# xmcd
#
# Track frame offsets: 
#        300
#        17060
#        33305
#        52941
#        72697
#        106539
#        134557
#        162865
#        183337
#        203244
#        224314
#
# Disc length: 3217 seconds
#
# Revision: 2
# Processed by: cddbd v1.5.2PL0 Copyright (c) Steve Scherf et al.
# Submitted via: ExactAudioCopy v1.0b1
#
DISCID=9a0c8d0b
DTITLE=Pat Travers - Don't Feed The Alligators
DYEAR=2000
DGENRE=Boogie Rock
TTITLE0=Black Friday
TTITLE1=I Can Hear You Calling
TTITLE2=Crosstown Traffic
TTITLE3=Spanish Moon
TTITLE4=Freedom
TTITLE5=I Love You More Than You'll Ever Know
TTITLE6=Don't Change Horses
TTITLE7=I'm Bad, I'm Nationwide
TTITLE8=Nothing Is Easy
TTITLE9=Them Changes
TTITLE10=Delta Lady
EXTD=YEAR: 2000 ID3G: 0
EXTT0=
EXTT1=
EXTT2=
EXTT3=
EXTT4=
EXTT5=
EXTT6=
EXTT7=
EXTT8=
EXTT9=
EXTT10=
PLAYORDER=
